<svg width="525" height="69" viewBox="0 0 525 69" fill="none" xmlns="http://www.w3.org/2000/svg">
<path d="M223.045 48.1518C221.659 47.8004 220.468 47.0507 219.452 46.0551C218.805 45.3172 218.215 44.3567 217.765 43.0799C215.731 37.3053 215.176 23.1792 223.034 21.1645C223.034 21.1645 230.371 19.0561 234.057 27.2671L236.357 24.9479C233.988 22.0079 230.568 19.9932 226.685 19.4544C226.662 19.4544 226.639 19.4544 226.616 19.4426C226.535 19.4426 226.442 19.4075 226.361 19.4075C225.946 19.3489 225.402 19.3138 224.663 19.3138C216.32 19.3138 209.561 26.1895 209.561 34.6698C209.561 41.6158 214.09 47.4724 220.318 49.37L218.932 51.8649C218.932 51.8649 222.964 50.2485 226.431 52.9074C226.431 52.9074 225.714 55.1329 222.306 55.1329C219.348 55.1329 216.84 52.8019 216.84 52.8019L218.065 56.6556C218.065 56.6556 220.18 58.1549 223.057 57.8738C225.934 57.5926 228.349 56.2925 228.522 53.001C228.603 51.5486 227.968 50.5061 227.24 49.7799C230.903 49.1474 234.115 47.1913 236.38 44.3801L234.08 42.0609C230.394 50.2719 223.057 48.1635 223.057 48.1635L223.045 48.1518Z" fill="black"/>
<path d="M98.0897 25.8849L102.723 45.6569C102.804 46.02 102.85 46.3831 102.85 46.6642C102.85 46.9804 102.758 47.2499 102.561 47.531C102.538 47.5544 102.307 47.8121 101.221 47.8121H100.597V49.4051H111.551V47.8121H110.927C109.702 47.8121 109.286 47.4958 108.986 46.3128L102.862 19.7238H95.0045V21.3636H95.6285C97.1075 21.3636 97.2231 21.9141 97.2231 22.5818V22.8043C97.2231 23.0269 97.1768 23.6711 96.7378 24.8893L90.3363 45.3172C89.747 47.2498 89.3195 47.7067 88.0484 47.8004L87.4707 47.8472V49.3934H93.8028V47.8004H93.1788C92.578 47.8004 92.1158 47.6598 91.8385 47.3787C91.6189 47.1796 91.6073 46.9922 91.6073 46.7813C91.6073 46.5822 91.6305 46.3948 91.6882 46.184C91.7345 45.9966 98.0666 25.8732 98.0666 25.8732L98.0897 25.8849Z" fill="black"/>
<path d="M165.501 25.8849L170.135 45.6569C170.216 46.02 170.262 46.3831 170.262 46.6642C170.262 46.9804 170.17 47.2499 169.973 47.531C169.95 47.5544 169.719 47.8121 168.633 47.8121H168.009V49.4051H178.963V47.8121H178.339C177.114 47.8121 176.698 47.4958 176.398 46.3128L170.274 19.7238H162.416V21.3636H163.04C164.519 21.3636 164.635 21.9141 164.635 22.5818V22.8043C164.635 23.0269 164.589 23.6711 164.15 24.8893L157.748 45.3172C157.159 47.2498 156.731 47.7067 155.46 47.8004L154.882 47.8472V49.3934H161.215V47.8004H160.591C159.99 47.8004 159.528 47.6598 159.25 47.3787C159.031 47.1796 159.019 46.9922 159.019 46.7813C159.019 46.5822 159.042 46.3948 159.1 46.184C159.146 45.9966 165.478 25.8732 165.478 25.8732L165.501 25.8849Z" fill="black"/>
<path d="M249.24 25.8849L253.874 45.6569C253.955 46.02 254.001 46.3831 254.001 46.6642C254.001 46.9804 253.909 47.2499 253.712 47.531C253.689 47.5544 253.458 47.8121 252.372 47.8121H251.748V49.4051H262.702V47.8121H262.078C260.853 47.8121 260.437 47.4958 260.137 46.3128L254.013 19.7238H246.155V21.3636H246.779C248.258 21.3636 248.374 21.9141 248.374 22.5818V22.8043C248.374 23.0269 248.328 23.6711 247.888 24.8893L241.487 45.3172C240.898 47.2498 240.47 47.7067 239.199 47.8004L238.621 47.8472V49.3934H244.954V47.8004H244.33C243.729 47.8004 243.266 47.6598 242.989 47.3787C242.77 47.1796 242.758 46.9922 242.758 46.7813C242.758 46.5822 242.781 46.3948 242.839 46.184C242.885 45.9966 249.217 25.8732 249.217 25.8732L249.24 25.8849Z" fill="black"/>
<path d="M135.701 40.4445L135.574 41.077C134.811 44.7549 134.06 47.8121 132.628 47.8121H125.591C124.065 47.8121 123.811 47.3787 123.8 46.02V23.6126C123.8 22.6286 123.904 22.0781 124.181 21.7267C124.366 21.4573 124.874 21.3168 125.602 21.3168H126.226V19.7238H115.376V21.3168H116C117.398 21.3168 117.791 21.8321 117.791 23.6126V45.7154C117.791 47.4607 117.479 47.8121 115.965 47.8121H115.341V49.4051H135.678L137.226 40.8076L135.701 40.4562V40.4445Z" fill="black"/>
<path d="M148.469 23.6008C148.469 21.6213 149.001 21.305 150.295 21.305H150.919V19.712H140.034V21.305H140.658C142.068 21.305 142.484 21.6096 142.484 23.6008V45.5046C142.484 47.4841 142.23 47.8003 140.658 47.8003H140.034V49.3933H150.919V47.8003H150.295C148.793 47.8003 148.469 47.3904 148.469 45.5046V23.6008Z" fill="black"/>
<path d="M204.8 23.2728C204.8 22.0429 205.516 21.305 206.718 21.305H207.492V19.712H200.536V21.305H201.287C201.877 21.305 203.228 21.5042 203.228 23.2963V36.907L190.587 19.712H183.227V21.305H183.851C185.226 21.305 185.653 21.7853 185.676 23.3783V45.8091C185.676 47.4607 184.602 47.8003 183.712 47.8003H182.961V49.3933H189.94V47.8003H189.166C188.715 47.8003 187.225 47.6598 187.225 45.856V25.3578L202.258 45.7505C202.905 46.6056 203.24 47.6247 203.24 48.7725V49.4051H204.812V23.2845L204.8 23.2728Z" fill="black"/>
<path d="M313.151 23.5422C313.151 21.5627 313.683 21.2464 314.965 21.2464H315.589V19.6534H304.716V21.2464H305.34C306.749 21.2464 307.154 21.551 307.154 23.5422V45.4225C307.154 47.3903 306.9 47.7183 305.34 47.7183H304.716V49.3113H315.589V47.7183H314.965C313.475 47.7183 313.151 47.3083 313.151 45.4225V23.5422Z" fill="black"/>
<path d="M472.598 23.2026C472.598 21.9727 473.315 21.2348 474.516 21.2348H475.29V19.6418H468.346V21.2348H469.097C469.686 21.2348 471.038 21.4339 471.038 23.2261V36.8251L458.409 19.6418H451.06V21.2348H451.684C453.059 21.2348 453.475 21.7151 453.498 23.3081V45.7155C453.498 47.367 452.423 47.7067 451.533 47.7067H450.782V49.2997H457.75V47.7067H456.976C456.525 47.7067 455.035 47.5662 455.035 45.7623V25.2876L470.056 45.6569C470.703 46.512 471.038 47.531 471.038 48.6672V49.2997H472.61V23.2143L472.598 23.2026Z" fill="black"/>
<path d="M365.518 40.3507L365.379 40.9949C364.617 44.6729 363.866 47.7183 362.433 47.7183H354.737C353.12 47.7183 352.923 47.4958 352.923 45.7739V35.1266H357.626C358.839 35.1266 359.567 35.8528 359.567 37.071V39.3199H361.116V29.3403H359.567V31.5424C359.567 32.456 359.221 33.5336 357.603 33.5336H352.923V23.2142C352.923 21.6681 353.154 21.2464 354.737 21.2464H361.74C363.196 21.2464 363.97 24.4324 364.709 27.9698L364.836 28.5672L366.35 28.3095L364.79 19.6534H335.891V21.2464H336.515C337.116 21.2464 337.624 21.3987 337.879 21.6329C338.087 21.8438 338.121 22.0663 338.121 22.2655C338.121 22.4646 338.087 22.6286 338.029 22.8277L331.662 43.1501C331.662 43.1501 326.913 22.652 326.913 22.3709C326.913 22.0546 327.005 21.7852 327.19 21.5275C327.271 21.4221 327.652 21.2464 328.519 21.2464H329.143V19.6534H318.201V21.2464H318.824C320.049 21.2464 320.465 21.5744 320.754 22.7574C320.754 22.7574 326.717 48.5265 326.763 48.7374V49.3113H334.747V47.6715H334.123C333.407 47.6715 332.945 47.5426 332.737 47.2849C332.529 47.0155 332.529 46.711 332.529 46.4767C332.529 46.1722 332.586 45.8208 332.633 45.5045C332.783 44.8017 339.404 23.7296 339.404 23.7296C339.982 21.8438 340.386 21.3987 341.692 21.2464H345.147C346.672 21.2464 346.938 21.5861 346.938 23.5422V45.4225C346.938 47.3552 346.695 47.6598 345.124 47.7183L344.523 47.7417V49.3113H365.484L367.032 40.7372L365.541 40.3624L365.518 40.3507Z" fill="black"/>
<path d="M448.021 40.3507L447.882 40.9949C447.119 44.6729 446.368 47.7183 444.936 47.7183H437.24C435.622 47.7183 435.426 47.4958 435.426 45.7739V35.1617C435.426 35.1617 437.956 35.1266 440.129 35.1266C441.342 35.1266 442.07 35.8528 442.07 37.071V39.3199H443.618V29.3403H442.07V31.5424C442.07 32.456 441.723 33.5336 440.106 33.5336H435.426V23.2142C435.426 21.6681 435.657 21.2464 437.24 21.2464H444.242C445.698 21.2464 446.472 24.4324 447.212 27.9698L447.339 28.5672L448.853 28.3095L447.327 19.6534H427.002V21.2464H427.626C429.151 21.2464 429.417 21.5861 429.417 23.5422V45.4225C429.417 47.3552 429.175 47.6598 427.603 47.7183L427.002 47.7417V49.3113H447.963L449.511 40.7372L448.021 40.3624V40.3507Z" fill="black"/>
<path d="M523.509 40.3507L523.371 40.9949C522.608 44.6729 521.857 47.7183 520.424 47.7183H512.729C511.111 47.7183 510.914 47.4958 510.914 45.7739V35.1617C510.914 35.1617 513.445 35.1266 515.617 35.1266C516.831 35.1266 517.559 35.8528 517.559 37.071V39.3199H519.107V29.3403H517.559V31.5424C517.559 32.456 517.212 33.5336 515.594 33.5336H510.914V23.2142C510.914 21.6681 511.146 21.2464 512.729 21.2464H519.731C521.187 21.2464 521.961 24.4324 522.701 27.9698L522.828 28.5672L524.341 28.3095L522.816 19.6534H502.491V21.2464H503.115C504.64 21.2464 504.906 21.5861 504.906 23.5422V45.4225C504.906 47.3552 504.663 47.6598 503.092 47.7183L502.491 47.7417V49.3113H523.452L525 40.7372L523.509 40.3624V40.3507Z" fill="black"/>
<path d="M371.608 45.4342C371.608 47.3669 371.365 47.6715 369.794 47.73L369.193 47.7535V49.323H381.418V47.73H380.794C379.384 47.73 377.72 47.0975 377.281 45.3054C377.027 44.2278 377.027 43.4899 377.027 43.1033C377.027 42.3771 377.015 40.2921 378.564 38.4414C378.91 38.0549 379.338 37.5746 379.789 37.2233L383.844 45.7153C384.156 46.3244 384.526 47.0741 385.069 47.7183H383.313V49.3113H396.231V47.7183H392.222C391.043 47.7183 390.246 46.1604 389.957 45.4928L384.803 34.4941C387.45 33.1588 389.945 31.7415 390.419 28.1455C390.454 27.9581 390.454 27.2905 390.454 27.2905C390.454 25.2641 389.703 23.4485 388.293 22.0429C386.745 20.5085 384.411 19.6651 381.718 19.6651H369.204V21.2582H369.828C371.353 21.2582 371.619 21.5978 371.619 23.5539V45.4342H371.608ZM379.303 35.1734L377.628 36.9304V23.226C377.628 21.6798 377.859 21.2582 379.442 21.2582H379.962C381.36 21.2582 382.492 21.8789 383.232 23.0385C383.995 24.2919 384.156 25.6974 384.156 26.6579C384.156 26.9508 384.145 27.185 384.122 27.4544V27.6184C383.775 30.8513 381.949 32.6199 379.846 34.6581L379.315 35.1734H379.303Z" fill="black"/>
<path d="M414.396 33.5454L414.465 35.1383H415.47C417.065 35.1383 417.284 35.3726 417.284 37.1062V40.257C417.284 42.0257 416.845 43.5484 416.048 44.7783C414.696 46.5002 413.148 47.4255 411.715 47.8823C411.553 47.9292 411.391 47.9877 411.218 48.0229C410.652 48.1634 410.039 48.2455 409.404 48.304C409.023 48.3275 408.664 48.3157 408.341 48.304C407.312 48.2455 406.7 48.0815 406.7 48.0815C403.846 47.3553 402.101 45.0243 401.142 42.0726C400.576 40.0696 400.172 37.3756 400.148 34.5878C400.183 31.8118 400.576 29.1294 401.142 27.1265C402.113 24.1748 403.846 21.8438 406.7 21.1176C406.7 21.1176 414.037 19.0092 417.712 27.2085L420 24.8893C417.631 21.9492 414.222 19.9346 410.34 19.4075C410.317 19.4075 410.294 19.4075 410.271 19.3958C410.19 19.3958 410.097 19.3723 410.016 19.3606C409.6 19.302 409.057 19.2669 408.329 19.2669C401.038 19.2669 394.949 24.5262 393.55 31.519C393.354 32.5146 393.239 33.5571 393.239 34.6113C393.239 35.6655 393.342 36.7079 393.55 37.7035C394.96 44.6963 401.038 49.9556 408.329 49.9556C409.115 49.9556 409.681 49.9087 410.109 49.8385C410.143 49.8385 410.178 49.8385 410.201 49.8385C412.951 49.5808 415.355 48.7608 417.354 48.0815C418.763 47.6012 419.977 47.1795 420.774 47.1795C421.19 47.1795 421.71 47.1796 421.71 48.7023V49.3348H423.281V37.1062C423.351 35.5015 423.674 35.1618 425.096 35.1618H425.72V33.5688H414.407L414.396 33.5454Z" fill="black"/>
<path d="M500.261 19.6651H478.121L476.538 28.3212L478.064 28.5555L478.191 27.9815C478.295 27.5364 478.376 27.1147 478.468 26.7165C478.607 26.0488 478.734 25.428 478.907 24.8541C479.589 22.2889 480.236 21.2464 481.137 21.2464H484.303C485.852 21.2464 486.117 21.5861 486.117 23.5422V45.4225C486.117 47.3318 485.863 47.6598 484.28 47.7183L483.679 47.7417V49.3113H494.691V47.7417L494.09 47.7183C492.507 47.6598 492.253 47.3435 492.253 45.4225V23.5422C492.253 21.5861 492.53 21.2464 494.067 21.2464H497.233C498.135 21.2464 498.782 22.2889 499.464 24.8541C499.637 25.428 499.764 26.0605 499.903 26.7165C499.984 27.1264 500.076 27.5481 500.18 27.9815L500.307 28.5555L501.832 28.3212L500.249 19.6651H500.261Z" fill="black"/>
<path d="M288.539 19.6534H276.868V21.2933H277.515C279.018 21.2933 279.272 21.633 279.272 23.5539V45.3757C279.272 47.3084 279.052 47.5778 277.492 47.6363L276.868 47.6597V49.2762H288.839C297.055 49.2762 302.798 43.2204 302.798 34.5526C302.798 25.8848 297.078 19.8525 288.539 19.6534ZM285.327 45.7271C285.327 45.7271 285.327 46.7695 285.327 44.1106V23.226C285.327 21.7032 285.546 21.2933 287.106 21.2933H287.406C291.116 21.2933 293.508 22.4177 294.94 24.8307C296.154 26.9391 296.674 29.9611 296.674 34.9275C296.674 43.8412 294.478 47.6363 289.325 47.6363H287.106C285.592 47.6363 285.327 47.4958 285.327 45.7271Z" fill="black"/>
<path d="M21.2491 38.7695C21.2491 38.7695 21.2491 38.7929 21.2722 38.7929L31.9952 34.2482L37.4723 31.9172C37.9691 31.7064 38.3851 31.3199 38.6162 30.8396C40.7885 26.4238 45.2372 23.39 50.3676 23.39C57.6357 23.39 63.5403 29.4692 63.5403 36.9774C63.5403 44.4855 57.6473 50.5647 50.3676 50.5647C50.3676 50.5647 44.7635 50.7638 41.297 48.4798L40.7077 49.9908C43.7466 51.8532 47.3749 52.8371 51.2458 52.5794C60.1547 51.982 67.3766 44.6847 68.0005 35.6538C68.74 24.9713 60.3974 16.0692 50.021 16.0692C45.607 16.0692 41.5627 17.6857 38.4198 20.3563C38.362 20.4031 38.2811 20.3563 38.2811 20.286V0.0104118C38.2811 0.0104118 38.258 -0.0130147 38.258 0.0104118C37.5416 1.5917 21.2606 38.7812 21.2606 38.7812L21.2491 38.7695Z" fill="black"/>
<path d="M46.7971 30.2305C46.7971 30.2305 46.7971 30.2071 46.774 30.2071L36.051 34.7518L30.5739 37.0827C30.077 37.2936 29.6611 37.6801 29.43 38.1604C27.2576 42.5762 22.809 45.61 17.6785 45.61C10.4105 45.61 4.50587 39.5308 4.50587 32.0226C4.50587 24.5144 10.3989 18.4353 17.6785 18.4353C17.6785 18.4353 23.2827 18.2362 26.7492 20.5202L27.3385 19.0092C24.2995 17.1468 20.6713 16.1629 16.8004 16.4206C7.89148 17.018 0.669618 24.3153 0.0456487 33.3462C-0.69387 44.0287 7.64883 52.9307 18.0252 52.9307C22.4392 52.9307 26.4834 51.3143 29.6264 48.6437C29.6842 48.5968 29.7651 48.6437 29.7651 48.714V68.9896C29.7651 68.9896 29.7882 69.013 29.7882 68.9896C30.5046 67.4083 46.7855 30.2188 46.7855 30.2188L46.7971 30.2305Z" fill="black"/>
</svg>
